<?xml version="1.0" encoding="UTF-8"?>
<svg xmlns="http://www.w3.org/2000/svg" width="1791" height="347" viewBox="0 0 1791 347" fill="none">
  <path d="M457.174 268.676H531.61L493.281 179.797L457.174 268.676ZM585.493 300.339C590.492 312.004 596.047 320.892 603.269 328.114C609.935 335.335 618.267 338.668 628.266 338.668H631.599V345.334H530.499V338.668H533.832C539.387 338.668 544.386 337.002 548.275 334.224C552.163 330.891 554.385 327.003 554.385 322.559C554.385 319.781 553.83 317.004 552.719 313.671C551.608 310.893 550.497 307.56 548.275 304.227L536.609 279.23H453.285L442.175 305.894C441.064 308.116 440.509 310.338 439.953 312.56C439.398 314.782 439.398 317.004 439.398 319.226C439.398 325.336 441.064 329.78 444.953 333.669C448.841 337.557 453.841 339.224 459.951 339.224H463.284V345.889H386.626V339.224H389.959C398.291 339.224 406.068 335.335 413.845 328.114C421.622 320.892 428.288 310.893 433.287 298.672L505.502 123.136H508.835L585.493 300.339Z" fill="#373B37"></path>
  <path d="M693.82 199.793C702.708 194.238 712.151 191.46 723.261 191.46C736.037 191.46 746.036 194.238 752.702 200.348C759.368 206.459 763.256 215.347 764.367 226.457C772.144 214.791 780.477 205.903 788.809 200.348C797.697 194.238 807.696 191.46 819.361 191.46C832.693 191.46 843.248 195.349 849.914 202.57C857.135 209.792 860.468 220.346 860.468 233.678V315.891C860.468 324.779 861.579 330.89 864.356 334.223C867.134 337.556 871.578 339.222 878.799 339.222H886.021V345.888H804.919V339.222H812.14C818.806 339.222 823.805 337.556 826.583 334.223C829.36 330.89 830.471 324.779 830.471 315.891V243.677C830.471 233.123 827.694 225.346 822.694 220.346C817.695 215.347 811.029 212.569 802.697 212.569C799.919 212.569 796.586 213.125 792.698 214.236C789.365 215.347 785.476 217.013 782.143 219.235C778.81 221.457 775.477 224.235 772.144 227.012C768.811 229.79 766.034 233.678 763.812 237.011V315.891C763.812 324.779 764.923 330.89 767.7 334.223C770.478 337.556 774.922 339.222 782.143 339.222H789.365V345.888H708.263V339.222H715.484C722.15 339.222 727.149 337.556 729.927 334.223C732.704 330.89 733.815 324.779 733.815 315.891V243.677C733.815 233.123 731.038 225.346 726.038 220.346C721.039 215.347 714.373 212.569 706.041 212.569C703.263 212.569 699.93 213.125 696.042 214.236C692.709 215.347 688.82 217.013 685.487 219.235C682.154 221.457 678.821 224.235 675.488 227.012C672.155 229.79 669.378 233.678 667.156 237.011V315.891C667.156 324.779 668.822 330.89 671.6 334.223C674.377 337.556 679.377 339.222 686.598 339.222H693.82V345.888H614.939V339.222H618.272C624.938 339.222 629.938 337.556 633.271 334.223C636.048 330.89 637.715 324.779 637.715 315.891V225.901C637.715 217.013 636.048 210.903 633.271 207.57C630.493 204.237 625.494 202.57 618.272 202.57H614.939V195.904L667.711 191.46V225.901C676.599 214.236 684.932 205.903 693.82 199.793Z" fill="#373B37"></path>
  <path d="M984.885 247.01C984.885 240.899 984.329 234.789 982.663 229.234C980.996 223.679 978.774 218.68 975.997 214.236C973.219 209.792 969.331 206.459 964.887 204.237C960.443 202.015 955.444 200.348 949.889 200.348C945.445 200.348 941.556 201.459 937.112 203.681C933.224 205.903 929.335 208.681 926.002 213.125C922.669 217.013 919.892 222.013 917.67 227.568C915.448 233.123 914.337 239.788 913.782 247.01H984.885V247.01ZM949.889 191.46C958.777 191.46 967.109 193.127 974.886 195.904C982.663 199.237 989.884 203.126 995.439 208.681C1001.55 214.236 1005.99 220.902 1009.33 229.234C1012.66 237.011 1014.88 245.899 1014.88 255.898H913.226V260.897C913.226 270.896 914.337 279.784 916.559 288.116C918.781 296.449 922.114 303.115 926.558 309.225C931.002 315.336 936.001 319.78 942.112 323.113C948.222 326.446 955.444 328.112 963.221 328.112C974.331 328.112 983.218 324.779 990.995 318.113C998.772 311.447 1004.33 302.004 1007.66 290.338L1012.66 291.449C1011.55 299.782 1008.77 307.559 1005.44 314.225C1002.11 320.891 997.661 327.001 992.106 331.445C986.551 336.445 980.441 339.777 973.219 342.555C965.998 345.332 958.777 346.443 950.444 346.443C939.334 346.443 929.335 344.777 920.448 340.888C911.56 337 903.783 332.001 897.117 325.335C890.451 318.669 885.451 310.892 882.118 301.448C878.785 292.005 876.563 282.006 876.563 270.896C876.563 259.231 878.785 248.121 882.674 238.122C886.562 228.123 892.117 219.791 898.783 212.569C905.449 205.348 913.226 199.793 922.114 195.904C931.002 193.682 940.445 191.46 949.889 191.46Z" fill="#373B37"></path>
  <path d="M1104.88 191.459C1112.66 191.459 1119.33 193.126 1123.77 197.014C1128.21 200.903 1130.99 206.457 1130.99 213.679C1130.99 219.789 1128.77 224.233 1124.88 227.566C1120.99 230.899 1116.55 232.566 1110.99 232.566C1107.11 232.566 1104.33 232.01 1102.11 230.344C1099.88 228.677 1097.66 226.455 1096 224.233C1093.77 220.345 1092.11 217.012 1090.44 214.234C1088.77 211.457 1086 210.346 1081.55 210.346C1080.44 210.346 1078.78 210.901 1077.11 211.457C1075.44 212.012 1073.78 213.679 1072.67 215.345C1071 217.567 1069.89 219.789 1068.78 223.678C1067.67 227.011 1067.11 231.455 1067.11 237.01V314.779C1067.11 323.667 1068.78 329.777 1071.55 333.11C1074.33 336.443 1079.33 338.11 1086.55 338.11H1097.66V344.776H1007.12V338.11H1018.23C1024.89 338.11 1029.89 336.443 1033.23 333.11C1036 329.777 1037.67 323.667 1037.67 314.779V224.789C1037.67 215.901 1036 209.79 1033.23 206.457C1030.45 203.125 1021.56 201.458 1014.34 201.458H1011.01V194.792L1067.67 190.348V211.457C1071 205.346 1076.55 200.347 1083.22 196.459C1090.44 193.681 1097.11 191.459 1104.88 191.459Z" fill="#373B37"></path>
  <path d="M1152.65 151.465C1152.65 145.91 1154.88 140.911 1158.77 137.023C1162.65 133.134 1167.65 130.912 1173.76 130.912C1179.32 130.912 1184.32 133.134 1188.76 137.023C1192.65 140.911 1194.87 145.91 1194.87 151.465C1194.87 157.02 1192.65 162.02 1188.76 165.908C1184.87 169.797 1179.87 172.019 1173.76 172.019C1168.21 172.019 1163.21 169.797 1158.77 165.908C1154.88 161.464 1152.65 157.02 1152.65 151.465ZM1188.76 315.892C1188.76 324.78 1190.43 330.89 1193.21 334.223C1195.98 337.556 1204.32 339.222 1210.98 339.222H1222.09V345.888H1132.1V339.222H1139.32C1145.99 339.222 1150.99 337.556 1154.32 334.223C1157.1 330.89 1158.77 324.78 1158.77 315.892V225.346C1158.77 216.458 1157.1 210.348 1153.21 207.57C1149.32 204.793 1144.88 203.126 1139.32 203.126H1135.99V196.46L1188.76 192.016V315.892Z" fill="#373B37"></path>
  <path d="M1332.62 298.116C1332.62 290.895 1330.95 284.784 1328.18 279.785C1324.84 274.786 1320.96 269.786 1315.4 265.342C1309.85 260.898 1303.74 257.565 1296.51 253.677C1289.29 250.344 1281.52 247.011 1273.18 243.678C1255.96 236.456 1242.63 228.124 1233.74 217.57C1224.86 207.015 1220.41 194.239 1220.41 179.241C1220.41 170.353 1222.08 162.576 1225.97 155.354C1229.85 148.133 1234.85 142.578 1240.96 137.578C1247.08 132.579 1254.3 128.691 1262.07 126.469C1269.85 123.691 1278.74 122.58 1287.07 122.58C1295.96 122.58 1303.74 123.691 1310.4 125.913C1317.07 128.135 1327.62 130.913 1334.84 134.801C1337.62 136.467 1339.84 137.023 1342.06 137.023C1343.73 137.023 1344.84 136.467 1345.95 135.356C1347.06 134.245 1347.62 132.024 1347.62 129.246V127.024H1355.4V188.128H1347.62C1345.4 170.908 1334.84 157.021 1324.84 147.577C1314.85 138.134 1302.07 133.134 1287.63 133.134C1276.52 133.134 1267.07 135.912 1260.41 142.022C1253.74 148.133 1250.41 155.91 1250.41 165.909C1250.41 172.019 1252.07 177.574 1254.85 182.573C1257.63 187.573 1262.07 192.017 1267.07 196.461C1272.07 200.905 1278.74 204.793 1285.96 208.126C1293.18 212.015 1300.96 215.348 1309.29 218.681C1328.18 226.458 1342.06 234.79 1350.95 244.233C1359.84 253.677 1364.28 265.898 1364.28 280.34C1364.28 290.895 1362.06 300.338 1357.62 308.671C1353.17 317.003 1347.62 324.225 1340.95 329.78C1334.29 335.334 1326.51 339.778 1318.18 342.556C1309.85 345.333 1301.51 347 1293.18 347C1282.63 347 1273.18 345.333 1265.41 342C1257.63 338.667 1249.85 334.779 1242.08 329.78C1240.96 329.224 1239.3 328.113 1238.19 328.113C1237.08 327.558 1235.41 327.558 1233.74 327.558C1231.52 327.558 1229.3 328.669 1227.63 330.89C1225.97 333.112 1225.41 339.778 1225.41 345.333H1218.19V269.231H1225.97C1227.63 278.119 1230.41 287.006 1234.3 295.339C1238.19 303.671 1243.19 310.893 1249.3 317.003C1254.85 323.114 1261.52 328.113 1268.74 331.446C1275.96 334.779 1283.74 337.001 1291.51 337.001C1303.74 337.001 1313.73 333.668 1321.51 326.447C1328.73 319.225 1332.62 309.782 1332.62 298.116Z" fill="#373B37"></path>
  <path d="M1463.73 258.119L1440.4 266.452C1415.96 275.339 1403.74 287.56 1403.74 303.67C1403.74 310.336 1405.96 316.446 1409.85 321.445C1414.29 326.445 1420.4 329.222 1429.84 329.222C1435.95 329.222 1440.95 328.111 1445.4 326.445C1449.84 324.778 1453.73 322.556 1457.06 319.224L1463.73 313.113V258.119V258.119ZM1520.39 313.669C1519.28 324.778 1516.5 333.111 1510.95 338.666C1505.39 344.221 1498.73 346.998 1490.95 346.998C1484.28 346.998 1478.17 344.776 1473.73 340.888C1469.28 336.999 1465.95 330.889 1464.28 322.556L1458.73 328.111C1454.29 332 1450.4 335.333 1446.51 338.11C1442.62 340.332 1439.29 342.554 1435.95 343.665C1432.62 344.776 1429.29 345.887 1425.96 346.443C1422.62 346.998 1419.29 346.998 1415.96 346.998C1410.4 346.998 1404.85 345.887 1399.85 344.221C1394.85 342.554 1390.4 339.777 1386.52 336.444C1382.63 333.111 1379.85 329.222 1377.63 324.223C1375.41 319.223 1374.29 314.224 1374.29 307.558C1374.29 295.893 1378.74 286.449 1387.07 278.672C1395.4 270.896 1407.62 264.785 1423.18 260.897L1464.84 250.342V229.233C1464.84 219.235 1462.06 212.013 1457.06 207.014C1452.06 202.014 1445.4 199.792 1437.07 199.792C1429.29 199.792 1422.62 201.459 1417.62 205.347C1412.62 208.68 1406.51 213.124 1406.51 218.124C1406.51 220.346 1407.07 222.012 1407.62 223.678C1408.74 225.345 1408.74 227.567 1408.74 230.344C1408.74 234.788 1407.62 238.121 1404.85 241.454C1402.07 244.232 1398.18 245.898 1393.18 245.898C1388.74 245.898 1385.4 244.787 1382.63 242.01C1379.85 239.232 1378.18 235.899 1378.18 231.455C1378.18 229.789 1378.18 228.122 1378.74 225.9C1379.29 223.678 1379.85 222.012 1380.41 220.346C1384.85 212.013 1392.07 204.792 1402.07 199.237C1412.07 193.682 1427.62 190.904 1439.84 190.904C1447.62 190.904 1454.84 191.46 1460.95 193.126C1467.62 194.793 1473.17 197.015 1478.17 200.348C1483.17 203.681 1486.5 208.125 1489.28 214.235C1492.06 219.79 1493.17 227.011 1493.17 235.344V311.447C1493.17 315.335 1494.28 318.668 1495.95 320.89C1497.61 323.112 1500.39 324.223 1503.17 324.223C1505.95 324.223 1508.72 323.112 1510.95 321.445C1513.17 319.779 1514.83 316.446 1515.95 312.002L1520.39 313.669Z" fill="#373B37"></path>
  <path d="M1524.83 228.678C1520.39 220.346 1516.5 214.236 1512.61 209.236C1508.72 204.792 1504.28 202.57 1498.72 202.57H1491.5V195.904H1579.83V202.57H1573.72C1568.16 202.57 1563.72 203.681 1560.94 205.903C1558.16 208.125 1556.5 211.458 1556.5 215.902C1556.5 219.235 1557.61 223.124 1559.83 227.567L1595.94 299.226L1627.04 227.012C1628.15 224.235 1629.27 221.457 1629.82 219.235C1630.38 217.013 1630.93 214.791 1630.93 213.125C1630.93 206.459 1626.49 202.57 1617.04 202.57H1613.71V195.904H1676.48V202.57H1669.26C1655.93 202.57 1645.37 211.458 1638.15 229.234L1588.16 345.888H1583.71L1524.83 228.678Z" fill="#373B37"></path>
  <path d="M1760.93 247.01C1760.93 240.899 1760.38 234.789 1758.71 229.234C1757.04 223.679 1754.82 218.68 1752.04 214.236C1749.27 209.792 1745.38 206.459 1740.93 204.237C1736.49 202.015 1731.49 200.348 1725.93 200.348C1721.49 200.348 1717.6 201.459 1713.16 203.681C1709.27 205.903 1705.38 208.681 1702.05 213.125C1698.72 217.013 1695.94 222.013 1693.72 227.568C1691.49 233.123 1690.38 239.788 1689.83 247.01H1760.93V247.01ZM1725.93 191.46C1734.82 191.46 1743.15 193.127 1750.93 195.904C1758.71 199.237 1765.93 203.126 1771.49 208.681C1777.6 214.236 1782.04 220.902 1785.37 229.234C1788.71 237.011 1790.93 245.899 1790.93 255.898H1689.27V260.897C1689.27 270.896 1690.38 279.784 1692.6 288.116C1694.83 296.449 1698.16 303.115 1702.6 309.225C1707.05 315.336 1712.05 319.78 1718.16 323.113C1724.27 326.446 1731.49 328.112 1739.27 328.112C1750.38 328.112 1759.26 324.779 1767.04 318.113C1774.82 311.447 1780.37 302.004 1783.71 290.338L1788.71 291.449C1787.59 299.782 1784.82 307.559 1781.48 314.225C1778.15 320.891 1773.71 327.001 1768.15 331.445C1762.6 336.445 1756.49 339.777 1749.27 342.555C1742.04 345.332 1734.82 346.443 1726.49 346.443C1715.38 346.443 1705.38 344.777 1696.49 340.888C1687.61 337 1679.83 332.001 1673.16 325.335C1666.5 318.669 1661.5 310.892 1658.16 301.448C1654.83 292.005 1652.61 282.006 1652.61 270.896C1652.61 259.231 1654.83 248.121 1658.72 238.122C1662.61 228.123 1668.16 219.791 1674.83 212.569C1681.5 205.348 1689.27 199.793 1698.16 195.904C1707.05 193.682 1716.49 191.46 1725.93 191.46Z" fill="#373B37"></path>
  <path d="M330.519 76.4699V345.885L0 76.4699L165.537 0.367188L330.519 76.4699Z" fill="#069590"></path>
  <path d="M165.537 0.367188L0 322.554V76.4699L165.537 0.367188Z" fill="#00698F"></path>
  <path d="M330.518 76.4717V345.886L25.5518 345.331L330.518 76.4717Z" fill="#3BD4AE"></path>
</svg>
