<?xml version="1.0" encoding="utf-8"?>
<!-- Generator: Adobe Illustrator 25.2.1, SVG Export Plug-In . SVG Version: 6.00 Build 0)  -->
<svg version="1.1" xmlns="http://www.w3.org/2000/svg" xmlns:xlink="http://www.w3.org/1999/xlink" x="0px" y="0px"
	 viewBox="0 0 290.7 108" style="enable-background:new 0 0 290.7 108;" xml:space="preserve">
<style type="text/css">
	.st0{fill:#4A7D92;}
	.st1{fill:#696A6E;}
</style>
<g>
	<path class="st0" d="M270.1,5.7c0-0.5,0.1-1,0.3-1.4c0.2-0.4,0.4-0.8,0.8-1.1c0.3-0.3,0.7-0.6,1.1-0.8c0.4-0.2,0.9-0.3,1.4-0.3
		s1,0.1,1.4,0.3c0.4,0.2,0.8,0.4,1.1,0.8c0.3,0.3,0.6,0.7,0.8,1.1c0.2,0.4,0.3,0.9,0.3,1.4c0,0.5-0.1,1-0.3,1.4
		c-0.2,0.4-0.4,0.8-0.8,1.1c-0.3,0.3-0.7,0.6-1.1,0.8c-0.4,0.2-0.9,0.3-1.4,0.3s-1-0.1-1.4-0.3c-0.4-0.2-0.8-0.4-1.1-0.8
		c-0.3-0.3-0.6-0.7-0.8-1.1C270.2,6.7,270.1,6.2,270.1,5.7 M270.7,5.7c0,0.4,0.1,0.8,0.2,1.1c0.2,0.4,0.4,0.7,0.6,0.9
		c0.3,0.3,0.6,0.5,0.9,0.6c0.4,0.2,0.7,0.2,1.1,0.2c0.4,0,0.8-0.1,1.1-0.2c0.4-0.2,0.7-0.4,0.9-0.6c0.3-0.3,0.5-0.6,0.6-0.9
		c0.2-0.4,0.2-0.7,0.2-1.1c0-0.4-0.1-0.8-0.2-1.1c-0.2-0.4-0.4-0.7-0.6-0.9c-0.3-0.3-0.6-0.5-0.9-0.6c-0.4-0.2-0.7-0.2-1.1-0.2
		c-0.4,0-0.8,0.1-1.1,0.2c-0.4,0.2-0.7,0.4-0.9,0.6c-0.3,0.3-0.5,0.6-0.6,0.9C270.8,4.9,270.7,5.3,270.7,5.7 M272.3,3.6h1.6
		c0.5,0,0.9,0.1,1.1,0.3c0.2,0.2,0.4,0.5,0.4,0.9c0,0.4-0.1,0.6-0.3,0.8c-0.2,0.2-0.4,0.3-0.7,0.3l1.1,1.7h-0.8l-1-1.7H273v1.7h-0.8
		V3.6z M273,5.4h0.5c0.1,0,0.2,0,0.3,0c0.1,0,0.2,0,0.3-0.1c0.1,0,0.2-0.1,0.2-0.2c0.1-0.1,0.1-0.2,0.1-0.3c0-0.1,0-0.2-0.1-0.3
		c-0.1-0.1-0.1-0.1-0.2-0.2c-0.1,0-0.2-0.1-0.3-0.1c-0.1,0-0.2,0-0.3,0H273V5.4z"/>
	<path class="st0" d="M101.5,25.5c0,4.7-2.9,8.9-10.3,8.9H74.9V2.6h15.8c7.3,0,10,4,10,8.2c0,3.2-1.8,6.1-5.3,7
		C99.4,18.6,101.5,21.4,101.5,25.5 M80.6,7.1V16h9c4.3,0,5.2-2.3,5.2-4.5c0-2.1-1.1-4.3-5.2-4.3H80.6z M95.7,25
		c0-2.7-1.6-4.7-5.3-4.7h-9.7v9.5h9.5C94.1,29.9,95.7,27.8,95.7,25"/>
	<path class="st0" d="M111.2,2.6v18.9c0,5.1,3,8.7,8.4,8.7c5.3,0,8.4-3.6,8.4-8.7V2.6h5.7v19.3c0,7.9-5.1,13.4-14.1,13.4
		s-14.1-5.5-14.1-13.4V2.6H111.2z"/>
	<path class="st0" d="M138.7,2.6h13.7c9.6,0,15.9,5.9,15.9,15.6c0,9.7-6.4,16.2-15.9,16.2h-13.6V2.6z M152,29.7
		c6.5,0,10.2-4.7,10.2-11.5c0-6.8-3.9-11-10.4-11h-7.5v22.4H152z"/>
	<path class="st0" d="M172.6,18.6c0-9.9,6.2-16.9,16.4-16.9c8.5,0,13.3,4.8,14.5,10l-5.8,1.1c-0.8-3.3-3.6-6.3-8.8-6.3
		c-6.5,0-10.4,4.8-10.4,12.1c0,7.1,3.8,12,10.4,12c6.6,0,9.5-4.6,9.6-8.3v-0.4h-10v-4.5h15.2v17.1H199l0-5.2
		c-1.8,3.6-5.7,6.1-11.3,6.1C178.4,35.3,172.6,28.4,172.6,18.6"/>
	<polygon class="st0" points="232.8,29.7 232.8,34.4 209.2,34.4 209.2,2.6 232.5,2.6 232.5,7.3 214.9,7.3 214.9,15.9 231.8,15.9 
		231.8,20.4 214.9,20.4 214.9,29.7 	"/>
	<polygon class="st0" points="265.4,7.5 254.6,7.5 254.6,34.4 249,34.4 249,7.5 238.1,7.5 238.1,2.6 265.4,2.6 	"/>
	<path class="st0" d="M101.5,67.9c0,4.7-2.9,8.9-10.3,8.9H74.9V45h15.8c7.3,0,10,4,10,8.2c0,3.2-1.8,6.1-5.3,7
		C99.4,61,101.5,63.8,101.5,67.9 M80.6,49.6v8.9h9c4.3,0,5.2-2.3,5.2-4.5c0-2.1-1.1-4.3-5.2-4.3H80.6z M95.7,67.4
		c0-2.7-1.6-4.7-5.3-4.7h-9.7v9.5h9.5C94.1,72.3,95.7,70.2,95.7,67.4"/>
	<polygon class="st0" points="106.4,45 112.1,45 112.1,71.8 128.7,71.8 128.7,76.8 106.4,76.8 	"/>
	<path class="st0" d="M51.2,36.1H15.8V2.6h41.4v27.5C57.1,33.4,54.4,36.1,51.2,36.1"/>
	<path class="st0" d="M57.1,76.8H15.8v-35h35.8c3.1,0,5.6,2.5,5.6,5.6V76.8z"/>
	<rect x="4" y="2.6" class="st0" width="5.7" height="74.2"/>
	<rect x="133.6" y="45" class="st0" width="5.7" height="31.8"/>
	<path class="st0" d="M145.5,45h6.5l14.4,21c0.8,1.3,1.5,2.5,2,3.7h0.1c0-1.3,0-2.6,0-4.1V45h5.2v31.8h-6.2l-14.7-21.2
		c-0.8-1.3-1.5-2.5-1.9-3.6h-0.1c0,1.2,0,2.5,0,4.1v20.8h-5.2V45z"/>
	<path class="st0" d="M179.8,45h13.7c9.6,0,15.9,5.9,15.9,15.6c0,9.7-6.4,16.2-15.9,16.2h-13.6V45z M193.1,72.1
		c6.5,0,10.2-4.7,10.2-11.5c0-6.8-3.9-11-10.4-11h-7.5v22.4H193.1z"/>
	<path class="st0" d="M212.1,68.5l4.8-2.3c1.5,4,4.8,6.8,10.4,6.8c4.5,0,7.3-1.4,7.3-4.7c0-3-1.8-4.1-5.6-4.7l-6.3-0.9
		c-5.6-0.9-8.8-3.7-8.8-9.1c0-5.8,4.7-9.4,12.7-9.4c6.8,0,11.7,2.6,13.7,8l-4.5,2.5c-1.4-3.8-4.5-5.9-9.5-5.9
		c-4.3,0-6.8,1.6-6.8,4.3c0,2.6,1.5,3.8,5.3,4.5l6.2,1c6.1,1,9.4,3.5,9.4,9.1c0,6-4.6,10-13.2,10C219,77.7,213.9,74.2,212.1,68.5"/>
	<path class="st1" d="M3,100.8l2-0.9c0.4,1.4,1.5,2.6,3.5,2.6c1.3,0,2.5-0.5,2.5-1.9c0-1.2-0.8-1.7-2.2-2L7,98.3
		c-2-0.4-3.3-1.5-3.3-3.7c0-2.2,1.8-3.7,4.7-3.7c2.4,0,4.4,1,4.9,3.1l-1.9,1c-0.4-1.5-1.5-2.3-3.2-2.3c-1.4,0-2.3,0.6-2.3,1.7
		c0,1,0.6,1.6,2,1.9l1.9,0.4c2.1,0.4,3.5,1.4,3.5,3.7c0,2.2-1.7,3.9-4.9,3.9C5.4,104.3,3.5,102.8,3,100.8z"/>
	<path class="st1" d="M13.9,95h1.6v-2.3l2.2-0.9V95h2.2v1.6h-2.2v4.3c0,1,0.4,1.4,1.3,1.4c0.4,0,0.6-0.1,0.9-0.1v1.8
		c-0.5,0.1-0.9,0.2-1.5,0.2c-2.2,0-2.9-1.1-2.9-2.9v-4.6h-1.6V95z"/>
	<path class="st1" d="M21.3,107.5v-1.7c0.3,0.1,0.5,0.1,0.8,0.1c1,0,1.6-0.4,1.9-1.4l0.2-0.5L20.7,95H23l2,5.9
		c0.1,0.4,0.2,0.8,0.3,1.1h0c0-0.3,0.1-0.6,0.3-1.1l1.8-5.9h2.2l-3.4,9.5c-0.8,2.3-2,3.1-3.9,3.1C22,107.6,21.7,107.6,21.3,107.5z"
		/>
	<path class="st1" d="M33.3,104h-2.2V91h2.2V104z"/>
	<path class="st1" d="M43.7,100.1h-6.3c0,1.5,1,2.5,2.4,2.5c1,0,1.8-0.5,2.2-1.5l1.7,0.8c-0.7,1.6-2.1,2.4-3.9,2.4
		c-2.8,0-4.4-1.7-4.4-4.6c0-3,1.6-4.8,4.3-4.8c2.6,0,4.1,1.5,4.1,4.3V100.1z M41.6,98.5c0-1.5-0.7-2.2-2-2.2c-1.4,0-2.1,0.9-2.2,2.4
		h4.2V98.5z"/>
	<path class="st1" d="M49.4,101.6c0-0.9,0.4-1.6,1.1-2c0.6-0.4,1.5-0.6,2.9-0.8l1.9-0.2v-0.2c0-1.3-0.5-1.9-1.7-1.9
		c-1.1,0-1.7,0.6-1.8,1.6h-2.2c0.1-1.9,1.7-3.1,4-3.1c2.7,0,3.8,1.1,3.8,3.7v2.7c0,1.2,0.1,2.2,0.3,2.8h-2.2c-0.1-0.4-0.1-1-0.1-1.5
		c-0.4,1.1-1.6,1.8-3,1.8C50.6,104.2,49.4,103.2,49.4,101.6z M55.3,100.3v-0.6l-2,0.3c-1.2,0.2-1.7,0.6-1.7,1.4
		c0,0.8,0.6,1.2,1.5,1.2C54.4,102.7,55.3,101.8,55.3,100.3z"/>
	<path class="st1" d="M60,95h2v1.7c0.6-1.3,1.6-2,3-2c2,0,3,1.2,3,3.6v5.6h-2.2v-5.4c0-1.4-0.6-2.1-1.7-2.1c-1.3,0-2,1-2,2.7v4.8H60
		V95z"/>
	<path class="st1" d="M69.7,99.6c0-2.8,1.5-4.7,3.8-4.7c1.2,0,2.1,0.5,2.6,1.5V91h2.2v13h-2v-1.6c-0.5,1.2-1.5,1.8-2.9,1.8
		C71.2,104.2,69.7,102.4,69.7,99.6z M76.2,99.8v-0.6c0-1.8-0.8-2.8-2.1-2.8c-1.3,0-2.1,1.1-2.1,3s0.8,3.1,2.1,3.1
		C75.4,102.6,76.2,101.5,76.2,99.8z"/>
	<path class="st1" d="M84.6,101.8l1.6-0.7c0.4,1,1.3,1.6,2.6,1.6c1.1,0,1.7-0.5,1.7-1.1c0-0.6-0.4-0.9-1.3-1l-1.6-0.3
		C85.9,99.9,85,99,85,97.6c0-1.6,1.4-2.8,3.7-2.8c1.9,0,3.4,0.8,3.8,2.1L91,97.7c-0.4-0.8-1.2-1.3-2.4-1.3c-1,0-1.6,0.4-1.6,1.1
		c0,0.6,0.4,0.9,1.2,1l1.8,0.3c1.7,0.3,2.5,1.2,2.5,2.6c0,1.7-1.3,2.8-3.7,2.8C86.7,104.2,85.2,103.4,84.6,101.8z"/>
	<path class="st1" d="M102.1,100.1h-6.3c0,1.5,1,2.5,2.4,2.5c1,0,1.8-0.5,2.2-1.5l1.7,0.8c-0.7,1.6-2.1,2.4-3.9,2.4
		c-2.8,0-4.4-1.7-4.4-4.6c0-3,1.6-4.8,4.3-4.8c2.6,0,4.1,1.5,4.1,4.3V100.1z M100,98.5c0-1.5-0.7-2.2-2-2.2c-1.4,0-2.1,0.9-2.2,2.4
		h4.2V98.5z"/>
	<path class="st1" d="M109,94.8c0.1,0,0.2,0,0.3,0v2.1c-0.1,0-0.2,0-0.3,0c-0.9,0-1.5,0.3-1.9,0.6c-0.7,0.7-0.8,1.7-0.8,2.7v3.8
		h-2.2v-9h2v2.2C106.6,95.8,107.5,94.8,109,94.8z"/>
	<path class="st1" d="M109.9,95h2.3l1.8,5.7c0.1,0.5,0.3,0.9,0.3,1.3h0.1c0.1-0.4,0.2-0.9,0.3-1.3l1.7-5.7h2.3l-3.2,9h-2.3L109.9,95
		z"/>
	<path class="st1" d="M119.9,91.3h2.3v2.2h-2.3V91.3z M120,95h2.2v9H120V95z"/>
	<path class="st1" d="M124.1,99.5c0-2.9,1.7-4.7,4.4-4.7c2.2,0,3.7,1.2,4,3.2l-2.1,0.3c-0.1-1.2-0.8-1.9-1.9-1.9
		c-1.3,0-2.2,1.1-2.2,3c0,1.9,0.8,3.1,2.2,3.1c1.1,0,1.7-0.7,1.9-1.9l2,0.4c-0.3,2-1.8,3.2-4,3.2
		C125.9,104.2,124.1,102.4,124.1,99.5z"/>
	<path class="st1" d="M142.1,100.1h-6.3c0,1.5,1,2.5,2.4,2.5c1,0,1.8-0.5,2.2-1.5l1.7,0.8c-0.7,1.6-2.1,2.4-3.9,2.4
		c-2.8,0-4.4-1.7-4.4-4.6c0-3,1.6-4.8,4.3-4.8c2.6,0,4.1,1.5,4.1,4.3V100.1z M140,98.5c0-1.5-0.7-2.2-2-2.2c-1.4,0-2.1,0.9-2.2,2.4
		h4.2V98.5z"/>
	<path class="st1" d="M153.3,96.6h-2.2v7.4H149v-7.4h-1.5V95h1.5v-1.2c0-1.9,1.1-3,3.1-3c0.4,0,0.9,0.1,1.3,0.1v1.7
		c-0.3-0.1-0.6-0.1-0.9-0.1c-0.9,0-1.3,0.5-1.3,1.4v1h2.2V96.6z"/>
	<path class="st1" d="M154,99.5c0-3,1.8-4.7,4.4-4.7c2.6,0,4.4,1.7,4.4,4.7c0,3-1.8,4.7-4.4,4.7C155.8,104.2,154,102.5,154,99.5z
		 M160.6,99.5c0-2-0.8-3.1-2.2-3.1s-2.2,1-2.2,3.1c0,2,0.8,3.1,2.2,3.1S160.6,101.6,160.6,99.5z"/>
	<path class="st1" d="M169.6,94.8c0.1,0,0.2,0,0.3,0v2.1c-0.1,0-0.2,0-0.3,0c-0.9,0-1.5,0.3-1.9,0.6c-0.7,0.7-0.8,1.7-0.8,2.7v3.8
		h-2.2v-9h2v2.2C167.2,95.8,168.2,94.8,169.6,94.8z"/>
	<path class="st1" d="M183.6,100.1h-6.3c0,1.5,1,2.5,2.4,2.5c1,0,1.8-0.5,2.2-1.5l1.7,0.8c-0.7,1.6-2.1,2.4-3.9,2.4
		c-2.8,0-4.4-1.7-4.4-4.6c0-3,1.6-4.8,4.3-4.8c2.6,0,4.1,1.5,4.1,4.3V100.1z M181.4,98.5c0-1.5-0.7-2.2-2-2.2
		c-1.4,0-2.1,0.9-2.2,2.4h4.2V98.5z"/>
	<path class="st1" d="M184.1,95h2.3l1.8,5.7c0.1,0.5,0.3,0.9,0.3,1.3h0.1c0.1-0.4,0.2-0.9,0.3-1.3l1.7-5.7h2.3l-3.2,9h-2.3L184.1,95
		z"/>
	<path class="st1" d="M201.7,100.1h-6.3c0,1.5,1,2.5,2.4,2.5c1,0,1.8-0.5,2.2-1.5l1.7,0.8c-0.7,1.6-2.1,2.4-3.9,2.4
		c-2.8,0-4.4-1.7-4.4-4.6c0-3,1.6-4.8,4.3-4.8c2.6,0,4.1,1.5,4.1,4.3V100.1z M199.6,98.5c0-1.5-0.7-2.2-2-2.2
		c-1.4,0-2.1,0.9-2.2,2.4h4.2V98.5z"/>
	<path class="st1" d="M208.6,94.8c0.1,0,0.2,0,0.3,0v2.1c-0.1,0-0.2,0-0.3,0c-0.9,0-1.5,0.3-1.9,0.6c-0.7,0.7-0.8,1.7-0.8,2.7v3.8
		h-2.2v-9h2v2.2C206.2,95.8,207.2,94.8,208.6,94.8z"/>
	<path class="st1" d="M210.2,107.5v-1.7c0.3,0.1,0.5,0.1,0.8,0.1c1,0,1.6-0.4,1.9-1.4l0.2-0.5l-3.5-8.9h2.4l2,5.9
		c0.1,0.4,0.2,0.8,0.3,1.1h0c0-0.3,0.1-0.6,0.3-1.1l1.8-5.9h2.2l-3.4,9.5c-0.8,2.3-2,3.1-3.9,3.1
		C210.9,107.6,210.5,107.6,210.2,107.5z"/>
	<path class="st1" d="M226.4,102.6l-0.2,1.5h-1.8V91h2.2v5.4c0.5-0.9,1.4-1.6,2.8-1.6c2.2,0,3.6,1.9,3.6,4.7c0,2.8-1.5,4.7-3.7,4.7
		C227.9,104.2,226.9,103.6,226.4,102.6z M230.7,99.5c0-1.9-0.8-3.1-2.1-3.1c-1.3,0-2,1.1-2,2.8v0.6c0,1.7,0.8,2.7,2,2.7
		C229.9,102.6,230.7,101.4,230.7,99.5z"/>
	<path class="st1" d="M234.6,100.8V95h2.2v5.4c0,1.3,0.5,2,1.6,2c1.2,0,2-1,2-2.5v-5h2.2v9h-2v-1.7c-0.4,1.1-1.5,1.9-2.8,1.9
		C235.5,104.2,234.6,102.9,234.6,100.8z"/>
	<path class="st1" d="M244.5,99.6c0-2.8,1.5-4.7,3.8-4.7c1.2,0,2.1,0.5,2.6,1.5V91h2.2v13h-2v-1.6c-0.5,1.2-1.5,1.8-2.9,1.8
		C245.9,104.2,244.5,102.4,244.5,99.6z M250.9,99.8v-0.6c0-1.8-0.8-2.8-2.1-2.8c-1.3,0-2.1,1.1-2.1,3s0.8,3.1,2.1,3.1
		C250.1,102.6,250.9,101.5,250.9,99.8z"/>
	<path class="st1" d="M262,95.7c0.6,0.5,1,1.3,1,2.2c0,1.8-1.4,3.1-3.7,3.1c-0.7,0-1.3-0.1-1.8-0.3c-0.3,0.1-0.4,0.4-0.4,0.7
		c0,0.5,0.4,0.8,1.4,0.8h2.4c2.1,0,3.2,0.9,3.2,2.6c0,1.9-1.6,3.1-4.8,3.1c-3.1,0-4.2-1-4.2-2.3c0-0.8,0.5-1.4,1.5-1.8
		c-0.8-0.3-1.1-0.9-1.1-1.6c0-0.9,0.5-1.6,1.4-1.9c-0.7-0.6-1.1-1.4-1.1-2.3c0-1.8,1.4-3,3.7-3c0.7,0,1.4,0.1,1.9,0.4
		c0.3-1,1.1-1.7,2.4-1.7c0.2,0,0.3,0,0.5,0.1v1.6c-0.2-0.1-0.5-0.1-0.7-0.1C262.7,95.1,262.3,95.3,262,95.7z M258.1,104
		c-0.3,0-0.5,0-0.8,0c-0.4,0.3-0.6,0.7-0.6,1.1c0,1,1,1.3,2.6,1.3c2,0,2.7-0.6,2.7-1.3c0-0.7-0.5-1.1-1.5-1.1H258.1z M260.9,97.9
		c0-1-0.6-1.7-1.7-1.7c-1,0-1.7,0.7-1.7,1.7c0,1,0.6,1.8,1.7,1.8C260.3,99.6,260.9,98.9,260.9,97.9z"/>
	<path class="st1" d="M272.9,100.1h-6.3c0,1.5,1,2.5,2.4,2.5c1,0,1.8-0.5,2.2-1.5l1.7,0.8c-0.7,1.6-2.1,2.4-3.9,2.4
		c-2.8,0-4.4-1.7-4.4-4.6c0-3,1.6-4.8,4.3-4.8c2.6,0,4.1,1.5,4.1,4.3V100.1z M270.8,98.5c0-1.5-0.7-2.2-2-2.2
		c-1.4,0-2.1,0.9-2.2,2.4h4.2V98.5z"/>
	<path class="st1" d="M273.7,95h1.6v-2.3l2.2-0.9V95h2.2v1.6h-2.2v4.3c0,1,0.4,1.4,1.3,1.4c0.4,0,0.6-0.1,0.9-0.1v1.8
		c-0.5,0.1-0.9,0.2-1.5,0.2c-2.2,0-2.9-1.1-2.9-2.9v-4.6h-1.6V95z"/>
	<path class="st1" d="M283.8,104h-2.6v-2.5h2.6V104z"/>
	<path class="st1" d="M283.7,92.7c0-0.3,0.1-0.5,0.2-0.8c0.1-0.2,0.2-0.4,0.4-0.6c0.2-0.2,0.4-0.3,0.6-0.4c0.2-0.1,0.5-0.2,0.8-0.2
		c0.3,0,0.5,0.1,0.8,0.2c0.2,0.1,0.4,0.2,0.6,0.4c0.2,0.2,0.3,0.4,0.4,0.6c0.1,0.2,0.2,0.5,0.2,0.8c0,0.3-0.1,0.5-0.2,0.8
		c-0.1,0.2-0.2,0.4-0.4,0.6c-0.2,0.2-0.4,0.3-0.6,0.4c-0.2,0.1-0.5,0.2-0.8,0.2c-0.3,0-0.5-0.1-0.8-0.2c-0.2-0.1-0.4-0.2-0.6-0.4
		c-0.2-0.2-0.3-0.4-0.4-0.6C283.8,93.2,283.7,92.9,283.7,92.7 M284.1,92.7c0,0.2,0,0.4,0.1,0.6c0.1,0.2,0.2,0.4,0.3,0.5
		c0.1,0.1,0.3,0.3,0.5,0.3c0.2,0.1,0.4,0.1,0.6,0.1c0.2,0,0.4,0,0.6-0.1s0.4-0.2,0.5-0.3c0.1-0.1,0.3-0.3,0.3-0.5
		c0.1-0.2,0.1-0.4,0.1-0.6c0-0.2,0-0.4-0.1-0.6c-0.1-0.2-0.2-0.4-0.3-0.5c-0.1-0.1-0.3-0.3-0.5-0.3c-0.2-0.1-0.4-0.1-0.6-0.1
		c-0.2,0-0.4,0-0.6,0.1c-0.2,0.1-0.4,0.2-0.5,0.3c-0.1,0.1-0.3,0.3-0.3,0.5C284.1,92.2,284.1,92.4,284.1,92.7 M285,91.5h0.9
		c0.3,0,0.5,0.1,0.6,0.2c0.1,0.1,0.2,0.3,0.2,0.5c0,0.2-0.1,0.3-0.2,0.4c-0.1,0.1-0.2,0.2-0.4,0.2l0.6,1h-0.4l-0.6-0.9h-0.3v0.9H285
		V91.5z M285.4,92.5h0.3c0.1,0,0.1,0,0.2,0c0.1,0,0.1,0,0.2,0c0,0,0.1-0.1,0.1-0.1c0,0,0-0.1,0-0.2c0-0.1,0-0.1,0-0.2
		c0,0-0.1-0.1-0.1-0.1c-0.1,0-0.1,0-0.2,0c-0.1,0-0.1,0-0.2,0h-0.3V92.5z"/>
</g>
</svg>
