<svg width="40" height="40" viewBox="0 0 40 40" fill="none" xmlns="http://www.w3.org/2000/svg">
<g filter="url(#filter0_b_3357_7803)">
<rect width="40" height="40" rx="10" fill="#26331F"/>
</g>
<path d="M19.3908 31.2727V8.54545H20.8467V31.2727H19.3908ZM23.2526 16.0472C23.1816 15.3311 22.8768 14.7747 22.3382 14.3782C21.7996 13.9817 21.0687 13.7834 20.1454 13.7834C19.518 13.7834 18.9883 13.8722 18.5562 14.0497C18.1242 14.2214 17.7927 14.4611 17.5619 14.7688C17.337 15.0766 17.2246 15.4258 17.2246 15.8164C17.2127 16.1419 17.2808 16.426 17.4288 16.6687C17.5826 16.9113 17.7927 17.1214 18.0591 17.299C18.3254 17.4706 18.6332 17.6216 18.9824 17.7518C19.3316 17.8761 19.7044 17.9826 20.101 18.0714L21.7345 18.462C22.5276 18.6396 23.2556 18.8763 23.9185 19.1722C24.5813 19.4682 25.1554 19.8321 25.6408 20.2642C26.1261 20.6963 26.5019 21.2053 26.7682 21.7912C27.0405 22.3771 27.1796 23.0489 27.1855 23.8065C27.1796 24.9192 26.8955 25.8839 26.3332 26.7006C25.7769 27.5115 24.972 28.1418 23.9185 28.5916C22.8709 29.0355 21.6073 29.2575 20.1276 29.2575C18.6598 29.2575 17.3814 29.0326 16.2924 28.5827C15.2093 28.1329 14.3629 27.4671 13.7533 26.5852C13.1496 25.6974 12.833 24.5996 12.8034 23.2915H16.5232C16.5646 23.9012 16.7392 24.4102 17.047 24.8185C17.3607 25.221 17.778 25.5258 18.2988 25.733C18.8255 25.9342 19.4204 26.0348 20.0832 26.0348C20.7343 26.0348 21.2995 25.9401 21.7789 25.7507C22.2642 25.5613 22.64 25.2979 22.9064 24.9606C23.1727 24.6232 23.3059 24.2356 23.3059 23.7976C23.3059 23.3892 23.1846 23.0459 22.9419 22.7678C22.7052 22.4896 22.356 22.2528 21.8943 22.0575C21.4386 21.8622 20.8793 21.6847 20.2164 21.5249L18.2366 21.0277C16.7037 20.6548 15.4934 20.0719 14.6056 19.2788C13.7178 18.4857 13.2769 17.4174 13.2828 16.0739C13.2769 14.973 13.5699 14.0112 14.1617 13.1886C14.7595 12.3659 15.5792 11.7237 16.6209 11.2621C17.6625 10.8004 18.8463 10.5696 20.172 10.5696C21.5214 10.5696 22.6992 10.8004 23.7054 11.2621C24.7175 11.7237 25.5046 12.3659 26.0669 13.1886C26.6292 14.0112 26.9192 14.9641 26.9369 16.0472H23.2526Z" fill="#85BB65"/>
<defs>
<filter id="filter0_b_3357_7803" x="-24" y="-24" width="88" height="88" filterUnits="userSpaceOnUse" color-interpolation-filters="sRGB">
<feFlood flood-opacity="0" result="BackgroundImageFix"/>
<feGaussianBlur in="BackgroundImageFix" stdDeviation="12"/>
<feComposite in2="SourceAlpha" operator="in" result="effect1_backgroundBlur_3357_7803"/>
<feBlend mode="normal" in="SourceGraphic" in2="effect1_backgroundBlur_3357_7803" result="shape"/>
</filter>
</defs>
</svg>
